<svg width="512" height="160" viewBox="0 0 512 160" fill="none" xmlns="http://www.w3.org/2000/svg">
<g clip-path="url(#clip0_74_227)">
<path fill-rule="evenodd" clip-rule="evenodd" d="M422.751 100.79H502.71V159.967H422.751V100.79ZM0 12.7837H79.9591V71.9646H0V12.7837ZM357.494 12.7837H387.414C403.922 12.7837 417.593 26.5586 417.593 42.8844V159.967H387.672C371.165 159.967 357.494 146.451 357.494 130.122V12.7837ZM221.306 12.7837H251.226C267.734 12.7837 281.404 26.5586 281.404 42.8844V159.967H251.484C234.976 159.967 221.306 146.451 221.306 130.122V12.7837ZM85.1177 12.7837H115.038C131.546 12.7837 145.216 26.5586 145.216 42.8844V159.967H115.292C98.7881 159.967 85.1141 146.451 85.1141 130.122L85.1177 12.7837ZM286.563 159.971L352.336 92.627V12.7837L286.563 80.124V159.971ZM150.375 159.971L216.147 92.627V12.7837L150.375 80.124V159.971Z" fill="#A5B4FC"/>
</g>
<defs>
<clipPath id="clip0_74_227">
<rect width="512" height="160" fill="white"/>
</clipPath>
</defs>
</svg>
